<?xml version="1.0" standalone="no"?>
<!DOCTYPE svg PUBLIC "-//W3C//DTD SVG 20010904//EN"
 "http://www.w3.org/TR/2001/REC-SVG-20010904/DTD/svg10.dtd">
<svg version="1.0" xmlns="http://www.w3.org/2000/svg"
 width="317.000000pt" height="166.000000pt" viewBox="0 0 317.000000 166.000000"
 preserveAspectRatio="xMidYMid meet">

<g transform="translate(0.000000,166.000000) scale(0.100000,-0.100000)"
fill="#000000" stroke="none">
<path d="M285 1378 c-3 -7 -27 -120 -54 -250 l-49 -238 63 0 64 0 10 53 c6 28
17 95 26 147 9 52 19 103 23 113 7 17 31 -56 94 -280 9 -32 10 -33 68 -33 l59
0 11 38 c52 189 88 295 93 277 3 -11 15 -74 27 -140 33 -196 22 -175 94 -175
l63 0 -50 250 -50 250 -68 0 -68 0 -40 -127 c-22 -71 -45 -147 -52 -170 -7
-24 -15 -43 -18 -43 -3 0 -29 76 -57 168 l-52 167 -66 3 c-47 2 -68 -1 -71
-10z"/>
<path d="M1070 1369 c-206 -93 -209 -366 -5 -464 125 -59 280 -10 353 113 36
62 38 165 5 227 -49 92 -137 145 -243 145 -44 0 -80 -7 -110 -21z m178 -103
c51 -27 75 -62 80 -118 5 -63 -21 -109 -78 -139 -129 -69 -275 76 -200 199 40
65 132 92 198 58z"/>
<path d="M1510 1219 c0 -193 9 -237 55 -284 77 -77 259 -73 332 6 38 42 43 74
43 265 l0 184 -55 0 -55 0 0 -159 c0 -172 -8 -212 -46 -230 -39 -17 -99 -13
-125 8 -23 19 -24 25 -29 198 l-5 178 -57 3 -58 3 0 -172z"/>
<path d="M2030 1140 l0 -250 55 0 54 0 3 87 3 86 59 -86 60 -87 136 0 136 0
18 50 18 50 99 0 98 0 18 -50 18 -50 62 0 63 0 -13 33 c-8 17 -56 130 -106
250 l-93 217 -48 0 -47 0 -104 -245 c-57 -135 -107 -245 -110 -245 -6 0 -118
133 -132 157 -4 6 7 19 28 32 50 29 75 75 75 137 0 65 -29 111 -90 142 -38 19
-60 22 -152 22 l-108 0 0 -250z m220 140 c51 -51 7 -130 -71 -130 l-39 0 0 75
0 75 45 0 c32 0 51 -6 65 -20z m454 -112 c14 -40 26 -76 26 -80 0 -5 -27 -8
-60 -8 -33 0 -60 3 -60 6 0 16 54 154 60 154 4 0 19 -33 34 -72z"/>
<path d="M1296 664 c-83 -26 -116 -51 -266 -209 -91 -95 -152 -127 -244 -128
-58 -1 -103 13 -118 37 -17 25 -8 66 18 83 25 16 27 16 40 -2 12 -16 14 -16
14 -3 0 21 -27 48 -46 48 -33 0 -73 -31 -84 -64 -27 -83 42 -183 157 -226 198
-74 568 1 755 153 l54 44 42 -37 c171 -153 565 -235 765 -160 114 43 180 136
156 222 -10 37 -47 68 -83 68 -19 0 -46 -27 -46 -48 0 -13 2 -13 14 3 13 18
15 18 40 2 26 -17 35 -58 18 -83 -30 -45 -149 -50 -236 -11 -43 20 -83 54
-171 145 -129 133 -189 170 -295 179 -69 7 -146 -16 -180 -52 l-22 -24 -37 28
c-67 53 -149 64 -245 35z"/>
</g>
</svg>
